<svg
      width="50"
      height="50"
      viewBox="0 0 50 50"
      fill="none"
      xmlns="http://www.w3.org/2000/svg"
    >
      <rect
        opacity="0.7"
        width="50"
        height="50"
        rx="8"
        fill="url(#paint0_linear_3227_301)"
      />
      <path
        d="M29.976 12.0004C30.1838 12.0065 30.3852 12.0909 30.5534 12.2423C30.7217 12.3937 30.8487 12.605 30.9176 12.848C30.9865 13.091 30.994 13.3543 30.9392 13.6027C30.8844 13.8512 30.7698 14.0731 30.6107 14.2389L19.6724 24.9873L30.6107 35.7358C30.8238 35.9443 30.9613 36.2492 30.993 36.5834C31.0247 36.9175 30.9479 37.2536 30.7796 37.5177C30.6112 37.7817 30.3651 37.9521 30.0954 37.9913C29.8257 38.0306 29.5544 37.9355 29.3413 37.7269L17.3895 25.9512C17.2681 25.8325 17.17 25.6812 17.1025 25.5088C17.035 25.3364 17 25.1473 17 24.9556C17 24.764 17.035 24.5749 17.1025 24.4024C17.17 24.23 17.2681 24.0788 17.3895 23.9601L29.3413 12.2477C29.5247 12.0801 29.7481 11.993 29.976 12.0004V12.0004Z"
        fill="#FFA401"
      />
      <defs>
        <linearGradient
          id="paint0_linear_3227_301"
          x1="0"
          y1="0"
          x2="57.4021"
          y2="39.1457"
          gradientUnits="userSpaceOnUse"
        >
          <stop offset="0.274969" stop-color="#1C1C1C" />
          <stop offset="0.88656" stop-color="#272926" stop-opacity="0.26" />
        </linearGradient>
      </defs>
    </svg>