<svg
      width="50"
      height="50"
      viewBox="0 0 50 50"
      fill="none"
      xmlns="http://www.w3.org/2000/svg"
    >
      <rect
        opacity="0.7"
        width="50"
        height="50"
        rx="8"
        fill="url(#paint0_linear_3225_300)"
      />
      <path
        d="M20.024 37.9996C19.8162 37.9935 19.6147 37.9091 19.4465 37.7577C19.2783 37.6063 19.1513 37.395 19.0824 37.152C19.0135 36.909 19.006 36.6457 19.0608 36.3973C19.1156 36.1488 19.2302 35.9269 19.3893 35.7611L30.3276 25.0127L19.3893 14.2642C19.1762 14.0557 19.0387 13.7508 19.007 13.4166C18.9753 13.0825 19.0521 12.7464 19.2204 12.4823C19.3888 12.2183 19.6349 12.0479 19.9046 12.0087C20.1743 11.9694 20.4456 12.0645 20.6587 12.2731L32.6105 24.0488C32.7319 24.1675 32.83 24.3188 32.8975 24.4912C32.9649 24.6636 33 24.8527 33 25.0444C33 25.236 32.9649 25.4251 32.8975 25.5976C32.83 25.77 32.7319 25.9212 32.6105 26.0399L20.6587 37.7523C20.4753 37.9199 20.2519 38.007 20.024 37.9996V37.9996Z"
        fill="#FFA401"
      />
      <defs>
        <linearGradient
          id="paint0_linear_3225_300"
          x1="0"
          y1="0"
          x2="57.4021"
          y2="39.1457"
          gradientUnits="userSpaceOnUse"
        >
          <stop offset="0.274969" stop-color="#1C1C1C" />
          <stop offset="0.88656" stop-color="#272926" stop-opacity="0.26" />
        </linearGradient>
      </defs>
    </svg>