<svg width="32" height="21" viewBox="0 0 32 21" fill="none" xmlns="http://www.w3.org/2000/svg">
<g clip-path="url(#clip0_2795_568)">
<path d="M31.9688 19.4639C31.9613 19.7757 31.8576 20.0778 31.6714 20.3301C31.4852 20.5825 31.2255 20.773 30.9266 20.8763C30.6278 20.9797 30.3041 20.991 29.9986 20.9088C29.6931 20.8265 29.4203 20.6546 29.2164 20.416L16 4.00756L2.78363 20.416C2.5272 20.7357 2.1523 20.942 1.7414 20.9895C1.33051 21.037 0.917268 20.9219 0.592597 20.6694C0.267927 20.4168 0.0584193 20.0477 0.0101643 19.643C-0.0380907 19.2384 0.0788595 18.8315 0.335287 18.5118L14.8148 0.583062C14.9608 0.400924 15.1468 0.253724 15.3588 0.15252C15.5708 0.0513184 15.8034 -0.00125954 16.039 -0.00125955C16.2746 -0.00125956 16.5072 0.0513184 16.7192 0.15252C16.9312 0.253724 17.1172 0.400924 17.2632 0.583062L31.6647 18.5118C31.8709 18.7869 31.9779 19.122 31.9688 19.4639Z" fill="#FFA401"/>
</g>
<defs>
<clipPath id="clip0_2795_568">
<rect width="21" height="32" fill="white" transform="translate(0 21) rotate(-90)"/>
</clipPath>
</defs>
</svg>
